<svg width="19" height="19" viewBox="0 0 19 19" fill="none" xmlns="http://www.w3.org/2000/svg">
<g clip-path="url(#clip0_1_21)">
<path d="M17.3271 4.72489C17.2921 4.67799 17.2482 4.63845 17.198 4.60851C17.1477 4.57858 17.092 4.55884 17.0341 4.55044C16.9762 4.54203 16.9172 4.54511 16.8605 4.55951C16.8038 4.5739 16.7505 4.59933 16.7036 4.63434L9.52075 9.9959C9.49506 10.0152 9.4638 10.0256 9.43169 10.0256C9.39957 10.0256 9.36832 10.0152 9.34262 9.9959L2.30075 4.61059C2.25426 4.57511 2.20124 4.54914 2.14471 4.53416C2.08818 4.51917 2.02925 4.51547 1.97129 4.52325C1.91333 4.53104 1.85747 4.55017 1.8069 4.57954C1.75634 4.60892 1.71205 4.64797 1.67657 4.69446C1.64109 4.74095 1.61512 4.79397 1.60013 4.8505C1.58515 4.90703 1.58144 4.96596 1.58923 5.02392C1.59702 5.08188 1.61615 5.13774 1.64552 5.18831C1.6749 5.23887 1.71395 5.28316 1.76044 5.31864L7.29716 9.55356L1.8213 13.6801C1.77412 13.7153 1.73434 13.7594 1.70422 13.81C1.67411 13.8606 1.65424 13.9166 1.64577 13.9748C1.63729 14.033 1.64037 14.0924 1.65482 14.1494C1.66927 14.2065 1.69482 14.2601 1.73001 14.3073C1.76519 14.3544 1.80933 14.3942 1.85988 14.4243C1.91044 14.4545 1.96644 14.4743 2.02468 14.4828C2.08291 14.4913 2.14225 14.4882 2.19929 14.4737C2.25634 14.4593 2.30998 14.4337 2.35716 14.3986L8.03192 10.1147L8.80083 10.7084C8.98011 10.8456 9.19922 10.9207 9.425 10.9224C9.65078 10.924 9.87093 10.852 10.0522 10.7173L10.8597 10.1147L16.6012 14.3986C16.6481 14.4336 16.7014 14.459 16.7581 14.4734C16.8148 14.4877 16.8738 14.4908 16.9317 14.4824C16.9896 14.474 17.0452 14.4543 17.0955 14.4243C17.1458 14.3944 17.1897 14.3549 17.2247 14.308C17.2596 14.2611 17.2851 14.2078 17.2994 14.1511C17.3138 14.0944 17.3169 14.0354 17.3085 13.9775C17.3001 13.9197 17.2804 13.864 17.2504 13.8137C17.2205 13.7634 17.181 13.7196 17.1341 13.6846L11.6033 9.55208L17.2365 5.34387C17.33 5.27332 17.3919 5.1688 17.4088 5.05296C17.4257 4.93711 17.3964 4.81925 17.3271 4.72489Z" fill="#282828"/>
<path d="M16.7734 2.82031H2.22656C1.63604 2.82031 1.06971 3.0549 0.652145 3.47246C0.234584 3.89002 0 4.45635 0 5.04688L0 13.9531C0 14.5436 0.234584 15.11 0.652145 15.5275C1.06971 15.9451 1.63604 16.1797 2.22656 16.1797H16.7734C17.364 16.1797 17.9303 15.9451 18.3479 15.5275C18.7654 15.11 19 14.5436 19 13.9531V5.04688C19 4.45635 18.7654 3.89002 18.3479 3.47246C17.9303 3.0549 17.364 2.82031 16.7734 2.82031ZM18.1094 13.9531C18.1094 14.3074 17.9686 14.6472 17.7181 14.8978C17.4676 15.1483 17.1278 15.2891 16.7734 15.2891H2.22656C1.87225 15.2891 1.53245 15.1483 1.28191 14.8978C1.03138 14.6472 0.890625 14.3074 0.890625 13.9531V5.04688C0.890625 4.69256 1.03138 4.35276 1.28191 4.10222C1.53245 3.85169 1.87225 3.71094 2.22656 3.71094H16.7734C17.1278 3.71094 17.4676 3.85169 17.7181 4.10222C17.9686 4.35276 18.1094 4.69256 18.1094 5.04688V13.9531Z" fill="#282828" stroke="#282828" stroke-width="0.5"/>
</g>
<defs>
<clipPath id="clip0_1_21">
<rect width="19" height="19" fill="white"/>
</clipPath>
</defs>
</svg>
