<svg width="30" height="30" viewBox="0 0 30 30" fill="none" xmlns="http://www.w3.org/2000/svg">
<path d="M19.4 8.83994C22.8021 8.83994 25.56 7.85497 25.56 6.63994C25.56 5.42492 22.8021 4.43994 19.4 4.43994C15.9979 4.43994 13.24 5.42492 13.24 6.63994C13.24 7.85497 15.9979 8.83994 19.4 8.83994Z" stroke="#0499DD" stroke-width="0.6" stroke-miterlimit="10" stroke-linecap="round" stroke-linejoin="round"/>
<path d="M13.24 7.08008C13.24 7.48136 13.24 9.3188 13.24 9.72008C13.24 10.9349 15.997 11.9201 19.4 11.9201C22.803 11.9201 25.56 10.9349 25.56 9.72008C25.56 9.3188 25.56 7.48136 25.56 7.08008" stroke="#0499DD" stroke-width="0.6" stroke-miterlimit="10" stroke-linecap="round" stroke-linejoin="round"/>
<path d="M16.562 14.7531C17.4112 14.9106 18.3766 14.9999 19.4 14.9999C22.803 14.9999 25.56 14.0148 25.56 12.7999C25.56 12.3986 25.56 10.5612 25.56 10.1599" stroke="#0499DD" stroke-width="0.6" stroke-miterlimit="10" stroke-linecap="round" stroke-linejoin="round"/>
<path d="M13.24 10.1599C13.24 10.5612 13.24 12.0387 13.24 12.0387" stroke="#0499DD" stroke-width="0.6" stroke-miterlimit="10" stroke-linecap="round" stroke-linejoin="round"/>
<path d="M16.771 17.8701C17.5683 18.0047 18.4593 18.08 19.4 18.08C22.803 18.08 25.56 17.0953 25.56 15.88C25.56 15.4787 25.56 13.6413 25.56 13.24" stroke="#0499DD" stroke-width="0.6" stroke-miterlimit="10" stroke-linecap="round" stroke-linejoin="round"/>
<path d="M16.7371 20.9445C17.5427 21.0826 18.446 21.1601 19.3999 21.1601C22.8029 21.1601 25.5599 20.1753 25.5599 18.9601C25.5599 18.5588 25.5599 16.7213 25.5599 16.3201" stroke="#0499DD" stroke-width="0.6" stroke-miterlimit="10" stroke-linecap="round" stroke-linejoin="round"/>
<path d="M10.5999 16.3199C14.002 16.3199 16.7599 15.3349 16.7599 14.1199C16.7599 12.9049 14.002 11.9199 10.5999 11.9199C7.19787 11.9199 4.43994 12.9049 4.43994 14.1199C4.43994 15.3349 7.19787 16.3199 10.5999 16.3199Z" stroke="#0499DD" stroke-width="0.6" stroke-miterlimit="10" stroke-linecap="round" stroke-linejoin="round"/>
<path d="M4.43994 14.5601C4.43994 14.9613 4.43994 16.7988 4.43994 17.2001C4.43994 18.4153 7.19698 19.4001 10.5999 19.4001C14.0029 19.4001 16.7599 18.4153 16.7599 17.2001C16.7599 16.7988 16.7599 14.9613 16.7599 14.5601" stroke="#0499DD" stroke-width="0.6" stroke-miterlimit="10" stroke-linecap="round" stroke-linejoin="round"/>
<path d="M4.43994 17.6399C4.43994 18.0412 4.43994 19.8786 4.43994 20.2799C4.43994 21.4952 7.19698 22.4799 10.5999 22.4799C14.0029 22.4799 16.7599 21.4952 16.7599 20.2799C16.7599 19.8786 16.7599 18.0412 16.7599 17.6399" stroke="#0499DD" stroke-width="0.6" stroke-miterlimit="10" stroke-linecap="round" stroke-linejoin="round"/>
<path d="M4.43994 20.72C4.43994 21.1213 4.43994 22.9587 4.43994 23.36C4.43994 24.5753 7.19698 25.56 10.5999 25.56C14.0029 25.56 16.7599 24.5753 16.7599 23.36C16.7599 22.9587 16.7599 21.1213 16.7599 20.72" stroke="#0499DD" stroke-width="0.6" stroke-miterlimit="10" stroke-linecap="round" stroke-linejoin="round"/>
</svg>
