<svg width="195" height="167" viewBox="0 0 195 167" fill="none" xmlns="http://www.w3.org/2000/svg">
<path opacity="0.4" d="M124.998 107.814C120.32 106.414 115.391 101.881 110.21 94.214C105.232 86.438 104.283 77.4044 107.363 67.1133C110.444 56.8222 117.087 48.5321 127.295 42.243C137.502 35.9539 147.907 34.3962 158.51 37.5698C169.113 40.7433 176.935 46.3974 181.975 54.532C187.016 62.6666 187.949 72.0354 184.776 82.6383C181.649 93.0854 175.529 103.316 166.415 113.33C157.457 123.391 146.745 131.653 134.277 138.115C121.965 144.623 110.018 147.928 98.435 148.029C94.0202 143.48 92.4424 138.25 93.7014 132.341C100.824 129.546 107.47 125.504 113.641 120.215C120.013 114.817 123.799 110.684 124.998 107.814ZM41.0316 82.6825C36.5098 81.3291 31.6585 76.8189 26.4779 69.1521C21.4999 61.376 20.551 52.3425 23.6313 42.0514C26.7582 31.6043 33.4019 23.3142 43.5625 17.1811C53.7697 10.892 64.1748 9.33427 74.7777 12.5078C85.3807 15.6814 93.1245 21.3122 98.0092 29.4001C103.05 37.5347 103.983 46.9035 100.81 57.5064C97.6828 67.9534 91.5625 78.1841 82.4489 88.1984C73.4913 98.2594 62.7786 106.521 50.311 112.983C37.9993 119.492 26.052 122.796 14.4689 122.897C10.1009 118.192 8.52302 112.963 9.73537 107.209C17.014 104.461 23.7384 100.442 29.9085 95.1534C36.0787 89.8647 39.7864 85.7077 41.0316 82.6825Z" fill="#FFC700"/>
</svg>
