<svg width="27" height="17" viewBox="0 0 27 17" fill="none" xmlns="http://www.w3.org/2000/svg">
<path d="M25.89 14C24.7065 12.137 23.3215 10.4099 21.76 8.85003C21.7316 8.81456 21.7161 8.77047 21.7161 8.72503C21.7161 8.67959 21.7316 8.6355 21.76 8.60003C23.1037 6.76602 24.2912 4.82254 25.31 2.79003C25.4574 2.49919 25.5274 2.17531 25.5134 1.84956C25.4994 1.52381 25.4018 1.20714 25.23 0.930028C25.0733 0.648376 24.8442 0.413676 24.5664 0.250181C24.2887 0.0866858 23.9723 0.000326677 23.65 2.80926e-05H20.65C20.2693 0.00741492 19.8986 0.12332 19.5815 0.334121C19.2644 0.544922 19.0141 0.841857 18.86 1.19003C17.9886 3.11719 16.9443 4.9614 15.74 6.70003V1.80003C15.7413 1.56328 15.6957 1.32862 15.6057 1.10963C15.5157 0.890647 15.3831 0.691689 15.2157 0.524279C15.0483 0.356869 14.8494 0.224332 14.6304 0.134344C14.4114 0.0443549 14.1767 -0.00129827 13.94 2.80926e-05H9.55999C9.30501 0.00399251 9.05595 0.0775265 8.83971 0.212692C8.62346 0.347857 8.44824 0.539519 8.33296 0.766988C8.21768 0.994457 8.16673 1.24909 8.18559 1.50341C8.20445 1.75772 8.29241 2.00205 8.43999 2.21003L8.83999 2.77003C9.05454 3.07816 9.1697 3.44456 9.16999 3.82003V7.66003C7.84993 5.70717 6.80039 3.58455 6.04999 1.35003C5.91467 0.956273 5.65984 0.614564 5.32104 0.372561C4.98223 0.130558 4.57635 0.000325416 4.15999 2.80926e-05H1.70999C1.44967 0.00314067 1.19341 0.0649639 0.960313 0.18089C0.727213 0.296815 0.523281 0.463854 0.363717 0.669557C0.204153 0.87526 0.0930716 1.11432 0.0387507 1.36893C-0.0155701 1.62353 -0.0117292 1.88711 0.0499874 2.14003C1.39999 7.87003 4.22999 12.62 7.81999 15.14C8.03514 15.2929 8.30199 15.3545 8.56237 15.3114C8.82275 15.2683 9.05553 15.124 9.20999 14.91C9.28723 14.8032 9.34256 14.6821 9.37282 14.5537C9.40307 14.4254 9.40764 14.2923 9.38626 14.1622C9.36488 14.0321 9.31798 13.9074 9.24826 13.7955C9.17853 13.6836 9.08736 13.5866 8.97999 13.51C5.83999 11.31 3.33999 7.12003 2.06999 2.00003H4.16999C5.09022 4.79592 6.47641 7.41616 8.26999 9.75003C8.47729 10.0149 8.76278 10.2077 9.08591 10.3011C9.40905 10.3944 9.75338 10.3835 10.07 10.27C10.3948 10.1568 10.6759 9.94424 10.8733 9.66248C11.0707 9.38073 11.1745 9.04403 11.17 8.70003V3.82003C11.1721 3.18433 11.0139 2.55836 10.71 2.00003H13.71V7.43003C13.7064 7.81857 13.8308 8.19749 14.0639 8.50833C14.297 8.81918 14.626 9.04467 15 9.15003C15.3628 9.27079 15.7554 9.26864 16.1169 9.14391C16.4784 9.01919 16.7888 8.77884 17 8.46003C18.4204 6.43363 19.6332 4.26939 20.62 2.00003H23.42C22.4668 3.8741 21.3667 5.66972 20.13 7.37003C19.8181 7.78722 19.6667 8.30267 19.7035 8.82224C19.7402 9.34181 19.9626 9.83084 20.33 10.2C21.7885 11.6698 23.1013 13.2773 24.25 15H20.9C19.8665 13.2893 18.4787 11.8197 16.83 10.69C16.5826 10.5088 16.2894 10.4005 15.9836 10.3775C15.6778 10.3546 15.3717 10.4178 15.1 10.56C14.8206 10.703 14.5866 10.9209 14.4241 11.1894C14.2616 11.4578 14.1771 11.7662 14.18 12.08V14.46C14.1855 14.599 14.1361 14.7345 14.0426 14.8374C13.949 14.9403 13.8188 15.0023 13.68 15.01H12.82C12.5548 15.01 12.3004 15.1154 12.1129 15.3029C11.9253 15.4905 11.82 15.7448 11.82 16.01C11.82 16.2752 11.9253 16.5296 12.1129 16.7171C12.3004 16.9047 12.5548 17.01 12.82 17.01H13.68C14.0118 17.0074 14.3398 16.9393 14.6452 16.8096C14.9506 16.6799 15.2274 16.4912 15.4596 16.2543C15.6919 16.0174 15.8751 15.7369 15.9987 15.429C16.1224 15.1211 16.1839 14.7918 16.18 14.46V12.69C17.3829 13.5949 18.4013 14.7219 19.18 16.01C19.3519 16.308 19.5978 16.5565 19.8938 16.7317C20.1899 16.9069 20.5261 17.0028 20.87 17.01H24.25C24.5956 17.0109 24.9351 16.9184 25.2325 16.7424C25.53 16.5664 25.7744 16.3134 25.94 16.01C26.1099 15.7004 26.1947 15.3513 26.1859 14.9983C26.1771 14.6452 26.075 14.3008 25.89 14Z" fill="#BC0000"/>
</svg>
