<svg width="19" height="19" viewBox="0 0 19 19" fill="none" xmlns="http://www.w3.org/2000/svg">
<g clip-path="url(#clip0_1_39)">
<path d="M18.7773 9.37725C18.7736 10.9841 18.4248 12.4017 17.7197 13.719C17.0555 14.9622 16.1389 15.9976 14.9848 16.814C13.9717 17.5302 12.8621 18.02 11.6486 18.2724C10.3053 18.5507 8.96192 18.521 7.62969 18.2019C6.92461 18.0312 6.24922 17.7714 5.61465 17.4263C5.50703 17.3669 5.41426 17.3632 5.29922 17.4003C3.90019 17.8493 2.50117 18.2946 1.10215 18.7399C0.942577 18.7919 0.786717 18.8401 0.627147 18.8995C0.515819 18.9403 0.508397 18.8995 0.538085 18.8067C0.701366 18.328 0.860936 17.8493 1.02422 17.3669C1.37305 16.3241 1.72187 15.2814 2.07812 14.2423C2.12637 14.105 2.05586 14.0159 2.00019 13.9194C1.5623 13.1587 1.25058 12.3497 1.05762 11.4962C0.63828 9.65557 0.786717 7.85205 1.4918 6.1042C1.9 5.09483 2.48262 4.18936 3.22851 3.3878C4.17851 2.36358 5.30293 1.61026 6.60176 1.10557C7.81523 0.634281 9.06953 0.452445 10.3609 0.530375C12.1311 0.637992 13.7416 1.22432 15.1555 2.29307C16.985 3.67354 18.1354 5.48819 18.5955 7.74073C18.718 8.31592 18.7625 8.89854 18.7773 9.37725ZM9.74121 2.0333C9.39609 2.01846 8.9916 2.05928 8.58711 2.11866C8.42754 2.14092 8.27168 2.17432 8.11582 2.21514C5.70371 2.82745 3.9707 4.26729 2.95019 6.53467C2.36016 7.84463 2.20059 9.22881 2.42324 10.6464C2.59766 11.7671 3.01328 12.7987 3.66269 13.7302C3.7332 13.8341 3.74434 13.9231 3.70352 14.0382C3.42891 14.8435 3.16172 15.6524 2.89082 16.4614C2.87598 16.506 2.83144 16.5579 2.87226 16.5987C2.91308 16.6433 2.96504 16.595 3.00957 16.5802C3.82226 16.3204 4.63496 16.0644 5.44023 15.7935C5.62578 15.7304 5.75937 15.7601 5.91894 15.8565C7.74102 16.9513 9.68926 17.2407 11.7414 16.6952C13.3 16.2833 14.584 15.4335 15.6008 14.1792C16.5842 12.9657 17.1334 11.5778 17.2447 10.0267C17.3301 8.83545 17.1445 7.67764 16.6695 6.57178C16.0721 5.18018 15.1406 4.0669 13.8826 3.23936C12.6506 2.43037 11.2887 2.01475 9.74121 2.0333Z" fill="#282828"/>
<path d="M5.31029 7.33275C5.32513 6.49779 5.65169 5.81126 6.28997 5.27689C6.47181 5.12474 6.69076 5.06165 6.93197 5.10247C7.03587 5.11732 7.14349 5.13216 7.24369 5.12103C7.49603 5.10247 7.64076 5.24349 7.71869 5.4513C7.95619 6.07474 8.18626 6.70189 8.42005 7.32533C8.46458 7.44408 8.45345 7.55169 8.39779 7.66302C8.25306 7.96361 8.02298 8.1974 7.7929 8.43119C7.59251 8.63529 7.58138 8.70208 7.71869 8.95072C8.38294 10.1531 9.29955 11.0882 10.5687 11.656C10.6318 11.682 10.6874 11.7265 10.7468 11.7525C10.9064 11.8304 11.0511 11.823 11.1847 11.6857C11.4445 11.4222 11.6857 11.1402 11.9195 10.8507C12.1013 10.6244 12.1867 10.591 12.4427 10.706C13.0661 10.9954 13.6599 11.3331 14.2648 11.6597C14.4652 11.7673 14.4874 11.9158 14.4577 12.1867C14.3353 13.2888 13.4929 13.7898 12.5318 13.9494C12.2089 14.0013 11.9046 13.9716 11.6003 13.8751C10.7097 13.5931 9.83392 13.2665 9.0472 12.7544C8.31244 12.2757 7.68158 11.6783 7.12865 10.9992C6.59056 10.3349 6.11185 9.63353 5.71478 8.87279C5.49212 8.43861 5.31029 7.76322 5.31029 7.33275Z" fill="#282828"/>
</g>
<defs>
<clipPath id="clip0_1_39">
<rect width="19" height="19" fill="white"/>
</clipPath>
</defs>
</svg>
